<svg xmlns="http://www.w3.org/2000/svg" xmlns:xlink="http://www.w3.org/1999/xlink" width="1920" zoomAndPan="magnify" viewBox="0 0 1440 809.999993" height="1080" preserveAspectRatio="xMidYMid meet" version="1.0"><defs><g/><clipPath id="16507ca6d6"><path d="M 70.277344 215.710938 L 465.703125 215.710938 L 465.703125 611.136719 L 70.277344 611.136719 Z M 70.277344 215.710938 " clip-rule="nonzero"/></clipPath><clipPath id="0000338c54"><path d="M 82.832031 223.429688 L 452.871094 223.429688 L 452.871094 603.589844 L 82.832031 603.589844 Z M 82.832031 223.429688 " clip-rule="nonzero"/></clipPath><clipPath id="5370ac4fdb"><path d="M 99.101562 223.429688 L 436.601562 223.429688 C 440.917969 223.429688 445.054688 225.144531 448.109375 228.195312 C 451.160156 231.246094 452.871094 235.382812 452.871094 239.699219 L 452.871094 586.871094 C 452.871094 591.1875 451.160156 595.324219 448.109375 598.378906 C 445.054688 601.429688 440.917969 603.140625 436.601562 603.140625 L 99.101562 603.140625 C 94.785156 603.140625 90.648438 601.429688 87.597656 598.378906 C 84.546875 595.324219 82.832031 591.1875 82.832031 586.871094 L 82.832031 239.699219 C 82.832031 235.382812 84.546875 231.246094 87.597656 228.195312 C 90.648438 225.144531 94.785156 223.429688 99.101562 223.429688 Z M 99.101562 223.429688 " clip-rule="nonzero"/></clipPath><clipPath id="131cffdfed"><path d="M 109.792969 255.226562 L 425.914062 255.226562 L 425.914062 579.988281 L 109.792969 579.988281 Z M 109.792969 255.226562 " clip-rule="nonzero"/></clipPath><clipPath id="77d036c58d"><path d="M 126.0625 255.226562 L 409.644531 255.226562 C 413.957031 255.226562 418.097656 256.941406 421.148438 259.992188 C 424.199219 263.042969 425.914062 267.179688 425.914062 271.496094 L 425.914062 563.453125 C 425.914062 567.765625 424.199219 571.90625 421.148438 574.957031 C 418.097656 578.007812 413.957031 579.722656 409.644531 579.722656 L 126.0625 579.722656 C 121.746094 579.722656 117.609375 578.007812 114.558594 574.957031 C 111.507812 571.90625 109.792969 567.765625 109.792969 563.453125 L 109.792969 271.496094 C 109.792969 267.179688 111.507812 263.042969 114.558594 259.992188 C 117.609375 256.941406 121.746094 255.226562 126.0625 255.226562 Z M 126.0625 255.226562 " clip-rule="nonzero"/></clipPath><clipPath id="b0612ebc23"><path d="M 142.011719 291.695312 L 393.742188 291.695312 L 393.742188 534.875 L 142.011719 534.875 Z M 142.011719 291.695312 " clip-rule="nonzero"/></clipPath><clipPath id="97b73e18cc"><path d="M 158.28125 291.695312 L 377.421875 291.695312 C 381.738281 291.695312 385.875 293.410156 388.925781 296.460938 C 391.976562 299.511719 393.691406 303.652344 393.691406 307.964844 L 393.691406 518.605469 C 393.691406 522.921875 391.976562 527.058594 388.925781 530.109375 C 385.875 533.160156 381.738281 534.875 377.421875 534.875 L 158.28125 534.875 C 153.96875 534.875 149.828125 533.160156 146.777344 530.109375 C 143.726562 527.058594 142.011719 522.921875 142.011719 518.605469 L 142.011719 307.964844 C 142.011719 303.652344 143.726562 299.511719 146.777344 296.460938 C 149.828125 293.410156 153.96875 291.695312 158.28125 291.695312 Z M 158.28125 291.695312 " clip-rule="nonzero"/></clipPath><clipPath id="079580e1c9"><path d="M 142 311.546875 L 413.542969 311.546875 L 413.542969 515.273438 L 142 515.273438 Z M 142 311.546875 " clip-rule="nonzero"/></clipPath><clipPath id="b287a241b8"><path d="M 376.601562 420.003906 L 426.390625 420.003906 L 426.390625 440 L 376.601562 440 Z M 376.601562 420.003906 " clip-rule="nonzero"/></clipPath><clipPath id="e740c900da"><path d="M 917.820312 393.832031 L 945.410156 393.832031 L 945.410156 421.417969 L 917.820312 421.417969 Z M 917.820312 393.832031 " clip-rule="nonzero"/></clipPath><clipPath id="8b14f4e0a7"><path d="M 931.617188 393.832031 C 923.996094 393.832031 917.820312 400.007812 917.820312 407.625 C 917.820312 415.242188 923.996094 421.417969 931.617188 421.417969 C 939.234375 421.417969 945.410156 415.242188 945.410156 407.625 C 945.410156 400.007812 939.234375 393.832031 931.617188 393.832031 Z M 931.617188 393.832031 " clip-rule="nonzero"/></clipPath></defs><g clip-path="url(#16507ca6d6)"><path fill="#1d5ab2" d="M 70.277344 215.710938 L 465.703125 215.710938 L 465.703125 611.136719 L 70.277344 611.136719 Z M 70.277344 215.710938 " fill-opacity="1" fill-rule="nonzero"/></g><g clip-path="url(#0000338c54)"><g clip-path="url(#5370ac4fdb)"><path fill="#1d5ab3" d="M 82.832031 223.429688 L 452.871094 223.429688 L 452.871094 603.589844 L 82.832031 603.589844 Z M 82.832031 223.429688 " fill-opacity="1" fill-rule="nonzero"/></g></g><g clip-path="url(#131cffdfed)"><g clip-path="url(#77d036c58d)"><path fill="#ffffff" d="M 109.792969 255.226562 L 425.914062 255.226562 L 425.914062 579.988281 L 109.792969 579.988281 Z M 109.792969 255.226562 " fill-opacity="1" fill-rule="nonzero"/></g></g><g clip-path="url(#b0612ebc23)"><g clip-path="url(#97b73e18cc)"><path fill="#1eafef" d="M 142.011719 291.695312 L 393.742188 291.695312 L 393.742188 534.875 L 142.011719 534.875 Z M 142.011719 291.695312 " fill-opacity="1" fill-rule="nonzero"/></g></g><g clip-path="url(#079580e1c9)"><path fill="#c71a1e" d="M 274.648438 515.039062 L 255.636719 515.011719 L 224.257812 411.703125 L 211.410156 434.933594 L 202.710938 440.0625 L 142.140625 440.0625 L 142.140625 420.183594 L 196.851562 420.183594 L 218.242188 381.511719 L 236.449219 383.433594 L 265.191406 478.070312 L 316.214844 311.65625 L 335.199219 311.589844 L 369.351562 420.183594 L 413.3125 420.183594 L 413.3125 440.0625 L 362.058594 440.0625 L 352.578125 433.105469 L 325.835938 348.085938 Z M 274.648438 515.039062 " fill-opacity="1" fill-rule="nonzero"/></g><g clip-path="url(#b287a241b8)"><path fill="#c71a1e" d="M 376.601562 420.003906 L 426.355469 420.003906 L 426.355469 440 L 376.601562 440 Z M 376.601562 420.003906 " fill-opacity="1" fill-rule="nonzero"/></g><g clip-path="url(#e740c900da)"><g clip-path="url(#8b14f4e0a7)"><path fill="#c71a1e" d="M 917.820312 393.832031 L 945.410156 393.832031 L 945.410156 421.417969 L 917.820312 421.417969 Z M 917.820312 393.832031 " fill-opacity="1" fill-rule="nonzero"/></g></g><g fill="#1eafef" fill-opacity="1"><g transform="translate(465.427855, 386.138393)"><g><path d="M 14.5 0 L 14.5 -138.265625 L 41.09375 -138.265625 L 87.984375 -33.359375 L 133.90625 -138.265625 L 159.53125 -138.265625 L 159.53125 0 L 135.84375 0 L 135.84375 -96.296875 L 98.328125 0 L 76.484375 0 L 38.1875 -96.296875 L 38.1875 0 Z M 14.5 0 "/></g></g><g transform="translate(639.466909, 386.138393)"><g><path d="M 109.15625 -138.265625 L 109.15625 -116.21875 L 39.9375 -116.21875 L 39.9375 -81.40625 L 105.875 -81.40625 L 105.875 -58.5 L 39.640625 -58.5 L 39.640625 -22.234375 L 110.515625 -22.234375 L 110.515625 0 L 14.5 0 L 14.5 -138.265625 Z M 109.15625 -138.265625 "/></g></g><g transform="translate(759.167104, 386.138393)"><g><path d="M 68.640625 -22.234375 C 97.328125 -22.234375 111.671875 -39.125 111.671875 -72.90625 C 111.671875 -101.65625 97.328125 -116.03125 68.640625 -116.03125 L 40.125 -116.03125 L 40.125 -22.234375 Z M 14.5 0 L 14.5 -138.265625 L 68.640625 -138.265625 C 114.410156 -138.265625 137.296875 -116.476562 137.296875 -72.90625 C 137.296875 -24.300781 114.410156 0 68.640625 0 Z M 14.5 0 "/></g></g><g transform="translate(903.716208, 386.138393)"><g><path d="M 40.125 -138.265625 L 40.125 0 L 14.5 0 L 14.5 -138.265625 Z M 40.125 -138.265625 "/></g></g><g transform="translate(958.345134, 386.138393)"><g><path d="M 40.125 -138.265625 L 40.125 0 L 14.5 0 L 14.5 -138.265625 Z M 137.390625 -138.265625 L 78.40625 -73.765625 L 143.578125 0 L 108.09375 0 L 54.625 -64.59375 L 54.625 -81.21875 L 106.0625 -138.265625 Z M 137.390625 -138.265625 "/></g></g><g transform="translate(1097.092936, 386.138393)"><g><path d="M 14.5 -54.34375 L 14.5 -138.265625 L 40.125 -138.265625 L 40.125 -54.34375 C 40.125 -32.289062 51.40625 -21.265625 73.96875 -21.265625 C 96.53125 -21.265625 107.8125 -32.289062 107.8125 -54.34375 L 107.8125 -138.265625 L 133.421875 -138.265625 L 133.421875 -54.34375 C 133.421875 -17.46875 113.601562 0.96875 73.96875 0.96875 C 34.320312 0.96875 14.5 -17.46875 14.5 -54.34375 Z M 14.5 -54.34375 "/></g></g><g transform="translate(1245.026132, 386.138393)"><g><path d="M 12.078125 -5.796875 L 12.078125 -29 C 25.941406 -23.84375 41.609375 -21.265625 59.078125 -21.265625 C 80.285156 -21.265625 90.890625 -28.359375 90.890625 -42.546875 C 90.890625 -52.859375 84.378906 -58.015625 71.359375 -58.015625 L 49.703125 -58.015625 C 21.398438 -58.015625 7.25 -70.90625 7.25 -96.6875 C 7.25 -125.050781 27.394531 -139.234375 67.6875 -139.234375 C 83.15625 -139.234375 97.816406 -136.976562 111.671875 -132.46875 L 111.671875 -109.25 C 97.816406 -114.40625 83.15625 -116.984375 67.6875 -116.984375 C 44.476562 -116.984375 32.875 -110.21875 32.875 -96.6875 C 32.875 -86.375 38.484375 -81.21875 49.703125 -81.21875 L 71.359375 -81.21875 C 101.460938 -81.21875 116.515625 -68.328125 116.515625 -42.546875 C 116.515625 -13.535156 97.367188 0.96875 59.078125 0.96875 C 41.609375 0.96875 25.941406 -1.285156 12.078125 -5.796875 Z M 12.078125 -5.796875 "/></g></g></g><g fill="#1d5ab3" fill-opacity="1"><g transform="translate(916.263086, 498.485605)"><g><path d="M 21.171875 -72.9375 L 21.171875 0 L 7.65625 0 L 7.65625 -72.9375 Z M 21.171875 -72.9375 "/></g></g></g><g fill="#1d5ab3" fill-opacity="1"><g transform="translate(945.084612, 498.485605)"><g><path d="M 7.65625 0 L 7.65625 -72.9375 L 21.671875 -72.9375 L 46.421875 -17.59375 L 70.65625 -72.9375 L 84.171875 -72.9375 L 84.171875 0 L 71.671875 0 L 71.671875 -50.8125 L 51.875 0 L 40.34375 0 L 20.15625 -50.8125 L 20.15625 0 Z M 7.65625 0 "/></g></g></g><g fill="#1d5ab3" fill-opacity="1"><g transform="translate(1036.905402, 498.485605)"><g><path d="M 7.65625 0 L 7.65625 -72.9375 L 40.296875 -72.9375 C 55.191406 -72.9375 62.640625 -66.085938 62.640625 -52.390625 C 62.640625 -37.523438 52.453125 -28.53125 32.078125 -25.40625 L 30.140625 -37.4375 C 42.390625 -39.644531 48.515625 -44.492188 48.515625 -51.984375 C 48.515625 -58.035156 45.488281 -61.0625 39.4375 -61.0625 L 21.171875 -61.0625 L 21.171875 0 Z M 7.65625 0 "/></g></g></g><g fill="#1d5ab3" fill-opacity="1"><g transform="translate(1100.822874, 498.485605)"><g><path d="M 7.65625 -28.671875 L 7.65625 -72.9375 L 21.171875 -72.9375 L 21.171875 -28.671875 C 21.171875 -17.035156 27.117188 -11.21875 39.015625 -11.21875 C 50.921875 -11.21875 56.875 -17.035156 56.875 -28.671875 L 56.875 -72.9375 L 70.390625 -72.9375 L 70.390625 -28.671875 C 70.390625 -9.210938 59.929688 0.515625 39.015625 0.515625 C 18.109375 0.515625 7.65625 -9.210938 7.65625 -28.671875 Z M 7.65625 -28.671875 "/></g></g></g><g fill="#1d5ab3" fill-opacity="1"><g transform="translate(1178.870546, 498.485605)"><g><path d="M 21.171875 -72.9375 L 21.171875 -11.734375 L 50.140625 -11.734375 L 50.140625 0 L 7.65625 0 L 7.65625 -72.9375 Z M 21.171875 -72.9375 "/></g></g></g><g fill="#1d5ab3" fill-opacity="1"><g transform="translate(1234.116054, 498.485605)"><g><path d="M 6.375 -3.0625 L 6.375 -15.296875 C 13.6875 -12.578125 21.953125 -11.21875 31.171875 -11.21875 C 42.359375 -11.21875 47.953125 -14.957031 47.953125 -22.4375 C 47.953125 -27.882812 44.515625 -30.609375 37.640625 -30.609375 L 26.21875 -30.609375 C 11.289062 -30.609375 3.828125 -37.410156 3.828125 -51.015625 C 3.828125 -65.972656 14.453125 -73.453125 35.703125 -73.453125 C 43.867188 -73.453125 51.609375 -72.265625 58.921875 -69.890625 L 58.921875 -57.640625 C 51.609375 -60.359375 43.867188 -61.71875 35.703125 -61.71875 C 23.460938 -61.71875 17.34375 -58.148438 17.34375 -51.015625 C 17.34375 -45.566406 20.300781 -42.84375 26.21875 -42.84375 L 37.640625 -42.84375 C 53.523438 -42.84375 61.46875 -36.039062 61.46875 -22.4375 C 61.46875 -7.132812 51.367188 0.515625 31.171875 0.515625 C 21.953125 0.515625 13.6875 -0.675781 6.375 -3.0625 Z M 6.375 -3.0625 "/></g></g></g><g fill="#1d5ab3" fill-opacity="1"><g transform="translate(1299.410817, 498.485605)"><g><path d="M 57.59375 -72.9375 L 57.59375 -61.3125 L 21.0625 -61.3125 L 21.0625 -42.953125 L 55.859375 -42.953125 L 55.859375 -30.859375 L 20.921875 -30.859375 L 20.921875 -11.734375 L 58.296875 -11.734375 L 58.296875 0 L 7.65625 0 L 7.65625 -72.9375 Z M 57.59375 -72.9375 "/></g></g></g><g fill="#1d5ab2" fill-opacity="1"><g transform="translate(475.088056, 581.550218)"><g><path d="M 8.296875 0 L 8.296875 -3.203125 L 13.5 -3.203125 L 13.5 -30.453125 L 4.9375 -30.453125 L 4.9375 -20.0625 L 0.78125 -20.0625 L 0.78125 -33.65625 L 31.328125 -33.65625 L 31.328125 -20.0625 L 27.140625 -20.0625 L 27.140625 -30.453125 L 18.78125 -30.453125 L 18.78125 -3.203125 L 24.125 -3.203125 L 24.125 0 Z M 8.296875 0 "/></g></g><g transform="translate(507.18151, 581.550218)"><g><path d="M 28.671875 0.734375 C 27.753906 0.734375 26.925781 0.570312 26.1875 0.25 C 25.457031 -0.0625 24.835938 -0.503906 24.328125 -1.078125 C 23.847656 -1.597656 23.414062 -2.3125 23.03125 -3.21875 C 22.644531 -4.125 22.316406 -5.113281 22.046875 -6.1875 C 21.742188 -7.414062 21.488281 -8.632812 21.28125 -9.84375 C 21.15625 -10.6875 20.925781 -11.46875 20.59375 -12.1875 C 20.269531 -12.90625 19.921875 -13.457031 19.546875 -13.84375 C 19.179688 -14.195312 18.796875 -14.5 18.390625 -14.75 C 17.992188 -15.007812 17.660156 -15.175781 17.390625 -15.25 C 17.160156 -15.3125 16.941406 -15.34375 16.734375 -15.34375 L 11.453125 -15.34375 L 11.453125 -3.203125 L 16.53125 -3.203125 L 16.53125 0 L 0.734375 0 L 0.734375 -3.203125 L 6.171875 -3.203125 L 6.171875 -30.453125 L 0.734375 -30.453125 L 0.734375 -33.65625 L 14.640625 -33.65625 C 15.628906 -33.65625 16.453125 -33.640625 17.109375 -33.609375 C 17.773438 -33.578125 18.617188 -33.519531 19.640625 -33.4375 C 20.867188 -33.3125 21.878906 -33.144531 22.671875 -32.9375 C 23.472656 -32.726562 24.367188 -32.398438 25.359375 -31.953125 C 26.296875 -31.523438 27.039062 -31.007812 27.59375 -30.40625 C 28.15625 -29.800781 28.632812 -29.015625 29.03125 -28.046875 C 29.394531 -27.109375 29.578125 -26.019531 29.578125 -24.78125 C 29.578125 -22.164062 28.765625 -20.21875 27.140625 -18.9375 C 26.359375 -18.332031 25.503906 -17.835938 24.578125 -17.453125 C 23.648438 -17.078125 22.539062 -16.753906 21.25 -16.484375 C 22.113281 -16.304688 22.832031 -16.054688 23.40625 -15.734375 C 23.988281 -15.421875 24.484375 -15.015625 24.890625 -14.515625 C 25.265625 -14.023438 25.566406 -13.503906 25.796875 -12.953125 C 26.023438 -12.398438 26.265625 -11.664062 26.515625 -10.75 C 26.710938 -10.019531 26.988281 -8.816406 27.34375 -7.140625 C 27.4375 -6.628906 27.570312 -6.101562 27.75 -5.5625 C 27.925781 -5.03125 28.101562 -4.613281 28.28125 -4.3125 C 28.476562 -3.988281 28.722656 -3.722656 29.015625 -3.515625 C 29.316406 -3.304688 29.65625 -3.203125 30.03125 -3.203125 C 31.5625 -3.203125 32.328125 -4.609375 32.328125 -7.421875 L 32.328125 -10.53125 L 35.359375 -10.53125 L 35.359375 -7.25 C 35.359375 -1.925781 33.128906 0.734375 28.671875 0.734375 Z M 14.25 -18.6875 C 16.644531 -18.6875 18.585938 -18.863281 20.078125 -19.21875 C 21.566406 -19.570312 22.726562 -20.164062 23.5625 -21 C 24.425781 -21.84375 24.859375 -22.96875 24.859375 -24.375 C 24.859375 -25.582031 24.640625 -26.582031 24.203125 -27.375 C 23.773438 -28.164062 23.09375 -28.789062 22.15625 -29.25 C 21.238281 -29.675781 20.148438 -29.984375 18.890625 -30.171875 C 17.628906 -30.359375 16.019531 -30.453125 14.0625 -30.453125 L 11.453125 -30.453125 L 11.453125 -18.6875 Z M 14.25 -18.6875 "/></g></g><g transform="translate(542.584951, 581.550218)"><g><path d="M 0.171875 0 L 0.171875 -3.203125 L 4.203125 -3.203125 L 15.984375 -33.65625 L 21.28125 -33.65625 L 33.25 -3.203125 L 37.015625 -3.203125 L 37.015625 0 L 22.546875 0 L 22.546875 -3.203125 L 27.53125 -3.203125 L 24.421875 -11.265625 L 11.5 -11.265625 L 8.5625 -3.203125 L 14.203125 -3.203125 L 14.203125 0 Z M 12.546875 -14.109375 L 23.296875 -14.109375 L 17.78125 -29.265625 Z M 12.546875 -14.109375 "/></g></g><g transform="translate(579.755209, 581.550218)"><g><path d="M 0.671875 0 L 0.671875 -3.203125 L 6.125 -3.203125 L 6.125 -30.453125 L 0.671875 -30.453125 L 0.671875 -33.65625 L 16.53125 -33.65625 L 16.53125 -30.453125 L 11.375 -30.453125 L 11.375 -3.203125 L 16.53125 -3.203125 L 16.53125 0 Z M 0.671875 0 "/></g></g><g transform="translate(596.953721, 581.550218)"><g><path d="M 0.734375 0 L 0.734375 -3.203125 L 6.125 -3.203125 L 6.125 -30.453125 L 0.734375 -30.453125 L 0.734375 -33.65625 L 12.8125 -33.65625 L 28.71875 -5.953125 L 28.71875 -30.453125 L 23.25 -30.453125 L 23.25 -33.65625 L 38.109375 -33.65625 L 38.109375 -30.453125 L 32.984375 -30.453125 L 32.984375 0 L 27.015625 0 L 10.390625 -28.890625 L 10.390625 -3.203125 L 15.515625 -3.203125 L 15.515625 0 Z M 0.734375 0 "/></g></g><g transform="translate(635.421136, 581.550218)"><g><path d="M 0.671875 0 L 0.671875 -3.203125 L 6.125 -3.203125 L 6.125 -30.453125 L 0.671875 -30.453125 L 0.671875 -33.65625 L 16.53125 -33.65625 L 16.53125 -30.453125 L 11.375 -30.453125 L 11.375 -3.203125 L 16.53125 -3.203125 L 16.53125 0 Z M 0.671875 0 "/></g></g><g transform="translate(652.619649, 581.550218)"><g><path d="M 0.734375 0 L 0.734375 -3.203125 L 6.125 -3.203125 L 6.125 -30.453125 L 0.734375 -30.453125 L 0.734375 -33.65625 L 12.8125 -33.65625 L 28.71875 -5.953125 L 28.71875 -30.453125 L 23.25 -30.453125 L 23.25 -33.65625 L 38.109375 -33.65625 L 38.109375 -30.453125 L 32.984375 -30.453125 L 32.984375 0 L 27.015625 0 L 10.390625 -28.890625 L 10.390625 -3.203125 L 15.515625 -3.203125 L 15.515625 0 Z M 0.734375 0 "/></g></g><g transform="translate(691.087064, 581.550218)"><g><path d="M 17.625 0.609375 C 15.613281 0.609375 13.726562 0.273438 11.96875 -0.390625 C 10.21875 -1.054688 8.722656 -1.976562 7.484375 -3.15625 C 6.285156 -4.300781 5.25 -5.628906 4.375 -7.140625 C 3.507812 -8.660156 2.878906 -10.253906 2.484375 -11.921875 C 2.078125 -13.578125 1.875 -15.269531 1.875 -17 C 1.875 -19.25 2.269531 -21.410156 3.0625 -23.484375 C 3.863281 -25.566406 4.988281 -27.421875 6.4375 -29.046875 C 7.894531 -30.679688 9.726562 -31.972656 11.9375 -32.921875 C 14.144531 -33.867188 16.539062 -34.34375 19.125 -34.34375 C 21.5625 -34.34375 23.78125 -33.890625 25.78125 -32.984375 C 27.78125 -32.078125 29.332031 -30.851562 30.4375 -29.3125 C 31.519531 -27.78125 32.0625 -26.097656 32.0625 -24.265625 C 32.0625 -23.640625 31.898438 -23.039062 31.578125 -22.46875 C 31.265625 -21.90625 30.8125 -21.445312 30.21875 -21.09375 C 29.632812 -20.75 28.96875 -20.578125 28.21875 -20.578125 C 27.519531 -20.578125 26.882812 -20.742188 26.3125 -21.078125 C 25.738281 -21.410156 25.285156 -21.84375 24.953125 -22.375 C 24.628906 -22.914062 24.46875 -23.484375 24.46875 -24.078125 C 24.46875 -24.734375 24.613281 -25.332031 24.90625 -25.875 C 25.207031 -26.425781 25.582031 -26.859375 26.03125 -27.171875 C 26.476562 -27.492188 26.898438 -27.65625 27.296875 -27.65625 L 27.390625 -27.65625 C 26.796875 -28.488281 26.003906 -29.195312 25.015625 -29.78125 C 24.023438 -30.363281 23.066406 -30.753906 22.140625 -30.953125 C 21.273438 -31.128906 20.410156 -31.21875 19.546875 -31.21875 C 17.171875 -31.21875 15.070312 -30.585938 13.25 -29.328125 C 11.4375 -28.078125 10.0625 -26.375 9.125 -24.21875 C 8.195312 -22.070312 7.734375 -19.679688 7.734375 -17.046875 C 7.734375 -15.285156 8.015625 -13.578125 8.578125 -11.921875 C 9.140625 -10.265625 9.914062 -8.800781 10.90625 -7.53125 C 11.90625 -6.25 13.117188 -5.238281 14.546875 -4.5 C 15.972656 -3.769531 17.472656 -3.40625 19.046875 -3.40625 C 20.171875 -3.40625 21.269531 -3.613281 22.34375 -4.03125 C 23.414062 -4.457031 24.320312 -5.015625 25.0625 -5.703125 C 25.789062 -6.367188 26.367188 -7.082031 26.796875 -7.84375 C 27.222656 -8.601562 27.4375 -9.3125 27.4375 -9.96875 L 27.4375 -13.109375 L 21.109375 -13.109375 L 21.109375 -16.484375 L 35.671875 -16.484375 L 35.671875 -13.109375 L 32.015625 -13.109375 L 32.015625 0 L 29.3125 0 L 28.21875 -4.71875 C 27.726562 -3.75 27.066406 -2.898438 26.234375 -2.171875 C 25.410156 -1.441406 24.5 -0.878906 23.5 -0.484375 C 21.601562 0.242188 19.644531 0.609375 17.625 0.609375 Z M 17.625 0.609375 "/></g></g><g transform="translate(726.848341, 581.550218)"><g/></g><g transform="translate(737.583433, 581.550218)"><g><path d="M 3.421875 5.5 L 3.421875 -35.90625 L 7.453125 -35.90625 L 7.453125 5.5 Z M 3.421875 5.5 "/></g></g><g transform="translate(748.47508, 581.550218)"><g/></g><g transform="translate(759.210172, 581.550218)"><g><path d="M 17.78125 0.609375 C 15.507812 0.609375 13.367188 0.140625 11.359375 -0.796875 C 9.359375 -1.742188 7.660156 -3.035156 6.265625 -4.671875 C 4.878906 -6.296875 3.800781 -8.191406 3.03125 -10.359375 C 2.257812 -12.535156 1.875 -14.804688 1.875 -17.171875 C 1.875 -19.617188 2.265625 -21.898438 3.046875 -24.015625 C 3.828125 -26.128906 4.9375 -27.957031 6.375 -29.5 C 7.820312 -31.03125 9.566406 -32.21875 11.609375 -33.0625 C 13.660156 -33.914062 15.878906 -34.34375 18.265625 -34.34375 C 20.335938 -34.34375 22.304688 -33.90625 24.171875 -33.03125 C 26.046875 -32.164062 27.585938 -30.941406 28.796875 -29.359375 C 30.023438 -27.765625 30.640625 -25.976562 30.640625 -24 C 30.640625 -23.3125 30.457031 -22.65625 30.09375 -22.03125 C 29.726562 -21.40625 29.207031 -20.894531 28.53125 -20.5 C 27.863281 -20.113281 27.101562 -19.921875 26.25 -19.921875 C 25.101562 -19.921875 24.179688 -20.253906 23.484375 -20.921875 C 22.796875 -21.597656 22.453125 -22.503906 22.453125 -23.640625 C 22.453125 -24.367188 22.648438 -25.003906 23.046875 -25.546875 C 23.453125 -26.085938 23.960938 -26.5 24.578125 -26.78125 C 25.191406 -27.070312 25.8125 -27.21875 26.4375 -27.21875 C 25.675781 -28.394531 24.566406 -29.351562 23.109375 -30.09375 C 21.660156 -30.84375 20.03125 -31.21875 18.21875 -31.21875 C 16.207031 -31.21875 14.40625 -30.632812 12.8125 -29.46875 C 11.226562 -28.3125 9.992188 -26.660156 9.109375 -24.515625 C 8.222656 -22.378906 7.78125 -19.898438 7.78125 -17.078125 C 7.78125 -15.441406 8.039062 -13.828125 8.5625 -12.234375 C 9.082031 -10.648438 9.8125 -9.203125 10.75 -7.890625 C 11.71875 -6.546875 12.9375 -5.484375 14.40625 -4.703125 C 15.875 -3.921875 17.46875 -3.53125 19.1875 -3.53125 C 20.46875 -3.53125 21.6875 -3.769531 22.84375 -4.25 C 24 -4.738281 24.988281 -5.394531 25.8125 -6.21875 C 26.59375 -7.007812 27.25 -7.863281 27.78125 -8.78125 C 28.320312 -9.707031 28.722656 -10.671875 28.984375 -11.671875 L 31.984375 -10.21875 C 31.171875 -6.75 29.550781 -4.078125 27.125 -2.203125 C 24.707031 -0.328125 21.59375 0.609375 17.78125 0.609375 Z M 17.78125 0.609375 "/></g></g><g transform="translate(791.572003, 581.550218)"><g><path d="M 17.78125 0.609375 C 15.75 0.609375 13.851562 0.285156 12.09375 -0.359375 C 10.332031 -1.015625 8.820312 -1.914062 7.5625 -3.0625 C 6.332031 -4.175781 5.28125 -5.484375 4.40625 -6.984375 C 3.539062 -8.484375 2.90625 -10.066406 2.5 -11.734375 C 2.082031 -13.390625 1.875 -15.097656 1.875 -16.859375 C 1.875 -20.492188 2.71875 -23.78125 4.40625 -26.71875 C 5.300781 -28.269531 6.367188 -29.597656 7.609375 -30.703125 C 8.859375 -31.816406 10.332031 -32.703125 12.03125 -33.359375 C 13.820312 -34.015625 15.738281 -34.34375 17.78125 -34.34375 C 19.800781 -34.34375 21.695312 -34.015625 23.46875 -33.359375 C 25.238281 -32.703125 26.75 -31.800781 28 -30.65625 C 29.21875 -29.539062 30.257812 -28.234375 31.125 -26.734375 C 31.988281 -25.234375 32.628906 -23.648438 33.046875 -21.984375 C 33.453125 -20.316406 33.65625 -18.609375 33.65625 -16.859375 C 33.65625 -13.222656 32.8125 -9.9375 31.125 -7 C 30.226562 -5.445312 29.160156 -4.117188 27.921875 -3.015625 C 26.691406 -1.910156 25.226562 -1.039062 23.53125 -0.40625 C 21.769531 0.269531 19.851562 0.609375 17.78125 0.609375 Z M 17.78125 -2.53125 C 19.34375 -2.53125 20.78125 -2.925781 22.09375 -3.71875 C 23.414062 -4.519531 24.503906 -5.613281 25.359375 -7 C 26.191406 -8.34375 26.828125 -9.859375 27.265625 -11.546875 C 27.710938 -13.242188 27.9375 -15 27.9375 -16.8125 C 27.9375 -18.269531 27.796875 -19.691406 27.515625 -21.078125 C 27.242188 -22.472656 26.820312 -23.765625 26.25 -24.953125 C 25.007812 -27.578125 23.378906 -29.394531 21.359375 -30.40625 C 20.265625 -30.945312 19.070312 -31.21875 17.78125 -31.21875 C 16.207031 -31.21875 14.765625 -30.816406 13.453125 -30.015625 C 12.148438 -29.222656 11.066406 -28.132812 10.203125 -26.75 C 9.359375 -25.382812 8.710938 -23.859375 8.265625 -22.171875 C 7.828125 -20.484375 7.609375 -18.726562 7.609375 -16.90625 C 7.609375 -13.820312 8.171875 -11.09375 9.296875 -8.71875 C 9.898438 -7.4375 10.597656 -6.34375 11.390625 -5.4375 C 12.191406 -4.539062 13.128906 -3.835938 14.203125 -3.328125 C 15.304688 -2.796875 16.5 -2.53125 17.78125 -2.53125 Z M 17.78125 -2.53125 "/></g></g></g><g fill="#1d5ab2" fill-opacity="1"><g transform="translate(823.486536, 581.550218)"><g><path d="M 0.171875 0 L 0.171875 -3.203125 L 4.203125 -3.203125 L 15.984375 -33.65625 L 21.28125 -33.65625 L 33.25 -3.203125 L 37.015625 -3.203125 L 37.015625 0 L 22.546875 0 L 22.546875 -3.203125 L 27.53125 -3.203125 L 24.421875 -11.265625 L 11.5 -11.265625 L 8.5625 -3.203125 L 14.203125 -3.203125 L 14.203125 0 Z M 12.546875 -14.109375 L 23.296875 -14.109375 L 17.78125 -29.265625 Z M 12.546875 -14.109375 "/></g></g></g><g fill="#1d5ab2" fill-opacity="1"><g transform="translate(857.324442, 581.550218)"><g><path d="M 17.78125 0.609375 C 15.507812 0.609375 13.367188 0.140625 11.359375 -0.796875 C 9.359375 -1.742188 7.660156 -3.035156 6.265625 -4.671875 C 4.878906 -6.296875 3.800781 -8.191406 3.03125 -10.359375 C 2.257812 -12.535156 1.875 -14.804688 1.875 -17.171875 C 1.875 -19.617188 2.265625 -21.898438 3.046875 -24.015625 C 3.828125 -26.128906 4.9375 -27.957031 6.375 -29.5 C 7.820312 -31.03125 9.566406 -32.21875 11.609375 -33.0625 C 13.660156 -33.914062 15.878906 -34.34375 18.265625 -34.34375 C 20.335938 -34.34375 22.304688 -33.90625 24.171875 -33.03125 C 26.046875 -32.164062 27.585938 -30.941406 28.796875 -29.359375 C 30.023438 -27.765625 30.640625 -25.976562 30.640625 -24 C 30.640625 -23.3125 30.457031 -22.65625 30.09375 -22.03125 C 29.726562 -21.40625 29.207031 -20.894531 28.53125 -20.5 C 27.863281 -20.113281 27.101562 -19.921875 26.25 -19.921875 C 25.101562 -19.921875 24.179688 -20.253906 23.484375 -20.921875 C 22.796875 -21.597656 22.453125 -22.503906 22.453125 -23.640625 C 22.453125 -24.367188 22.648438 -25.003906 23.046875 -25.546875 C 23.453125 -26.085938 23.960938 -26.5 24.578125 -26.78125 C 25.191406 -27.070312 25.8125 -27.21875 26.4375 -27.21875 C 25.675781 -28.394531 24.566406 -29.351562 23.109375 -30.09375 C 21.660156 -30.84375 20.03125 -31.21875 18.21875 -31.21875 C 16.207031 -31.21875 14.40625 -30.632812 12.8125 -29.46875 C 11.226562 -28.3125 9.992188 -26.660156 9.109375 -24.515625 C 8.222656 -22.378906 7.78125 -19.898438 7.78125 -17.078125 C 7.78125 -15.441406 8.039062 -13.828125 8.5625 -12.234375 C 9.082031 -10.648438 9.8125 -9.203125 10.75 -7.890625 C 11.71875 -6.546875 12.9375 -5.484375 14.40625 -4.703125 C 15.875 -3.921875 17.46875 -3.53125 19.1875 -3.53125 C 20.46875 -3.53125 21.6875 -3.769531 22.84375 -4.25 C 24 -4.738281 24.988281 -5.394531 25.8125 -6.21875 C 26.59375 -7.007812 27.25 -7.863281 27.78125 -8.78125 C 28.320312 -9.707031 28.722656 -10.671875 28.984375 -11.671875 L 31.984375 -10.21875 C 31.171875 -6.75 29.550781 -4.078125 27.125 -2.203125 C 24.707031 -0.328125 21.59375 0.609375 17.78125 0.609375 Z M 17.78125 0.609375 "/></g></g><g transform="translate(889.686273, 581.550218)"><g><path d="M 0.734375 0 L 0.734375 -3.203125 L 6.171875 -3.203125 L 6.171875 -30.453125 L 0.734375 -30.453125 L 0.734375 -33.65625 L 16.5625 -33.65625 L 16.5625 -30.453125 L 11.453125 -30.453125 L 11.453125 -19.046875 L 25.5625 -19.046875 L 25.5625 -30.453125 L 20.375 -30.453125 L 20.375 -33.65625 L 36.265625 -33.65625 L 36.265625 -30.453125 L 30.8125 -30.453125 L 30.8125 -3.203125 L 36.265625 -3.203125 L 36.265625 0 L 20.375 0 L 20.375 -3.203125 L 25.5625 -3.203125 L 25.5625 -16.21875 L 11.453125 -16.21875 L 11.453125 -3.203125 L 16.5625 -3.203125 L 16.5625 0 Z M 0.734375 0 "/></g></g><g transform="translate(926.677613, 581.550218)"><g><path d="M 0.671875 0 L 0.671875 -3.203125 L 6.125 -3.203125 L 6.125 -30.453125 L 0.671875 -30.453125 L 0.671875 -33.65625 L 16.53125 -33.65625 L 16.53125 -30.453125 L 11.375 -30.453125 L 11.375 -3.203125 L 16.53125 -3.203125 L 16.53125 0 Z M 0.671875 0 "/></g></g><g transform="translate(943.876125, 581.550218)"><g><path d="M 0.734375 0 L 0.734375 -3.203125 L 6.125 -3.203125 L 6.125 -30.453125 L 0.734375 -30.453125 L 0.734375 -33.65625 L 12.8125 -33.65625 L 28.71875 -5.953125 L 28.71875 -30.453125 L 23.25 -30.453125 L 23.25 -33.65625 L 38.109375 -33.65625 L 38.109375 -30.453125 L 32.984375 -30.453125 L 32.984375 0 L 27.015625 0 L 10.390625 -28.890625 L 10.390625 -3.203125 L 15.515625 -3.203125 L 15.515625 0 Z M 0.734375 0 "/></g></g><g transform="translate(982.34354, 581.550218)"><g><path d="M 17.625 0.609375 C 15.613281 0.609375 13.726562 0.273438 11.96875 -0.390625 C 10.21875 -1.054688 8.722656 -1.976562 7.484375 -3.15625 C 6.285156 -4.300781 5.25 -5.628906 4.375 -7.140625 C 3.507812 -8.660156 2.878906 -10.253906 2.484375 -11.921875 C 2.078125 -13.578125 1.875 -15.269531 1.875 -17 C 1.875 -19.25 2.269531 -21.410156 3.0625 -23.484375 C 3.863281 -25.566406 4.988281 -27.421875 6.4375 -29.046875 C 7.894531 -30.679688 9.726562 -31.972656 11.9375 -32.921875 C 14.144531 -33.867188 16.539062 -34.34375 19.125 -34.34375 C 21.5625 -34.34375 23.78125 -33.890625 25.78125 -32.984375 C 27.78125 -32.078125 29.332031 -30.851562 30.4375 -29.3125 C 31.519531 -27.78125 32.0625 -26.097656 32.0625 -24.265625 C 32.0625 -23.640625 31.898438 -23.039062 31.578125 -22.46875 C 31.265625 -21.90625 30.8125 -21.445312 30.21875 -21.09375 C 29.632812 -20.75 28.96875 -20.578125 28.21875 -20.578125 C 27.519531 -20.578125 26.882812 -20.742188 26.3125 -21.078125 C 25.738281 -21.410156 25.285156 -21.84375 24.953125 -22.375 C 24.628906 -22.914062 24.46875 -23.484375 24.46875 -24.078125 C 24.46875 -24.734375 24.613281 -25.332031 24.90625 -25.875 C 25.207031 -26.425781 25.582031 -26.859375 26.03125 -27.171875 C 26.476562 -27.492188 26.898438 -27.65625 27.296875 -27.65625 L 27.390625 -27.65625 C 26.796875 -28.488281 26.003906 -29.195312 25.015625 -29.78125 C 24.023438 -30.363281 23.066406 -30.753906 22.140625 -30.953125 C 21.273438 -31.128906 20.410156 -31.21875 19.546875 -31.21875 C 17.171875 -31.21875 15.070312 -30.585938 13.25 -29.328125 C 11.4375 -28.078125 10.0625 -26.375 9.125 -24.21875 C 8.195312 -22.070312 7.734375 -19.679688 7.734375 -17.046875 C 7.734375 -15.285156 8.015625 -13.578125 8.578125 -11.921875 C 9.140625 -10.265625 9.914062 -8.800781 10.90625 -7.53125 C 11.90625 -6.25 13.117188 -5.238281 14.546875 -4.5 C 15.972656 -3.769531 17.472656 -3.40625 19.046875 -3.40625 C 20.171875 -3.40625 21.269531 -3.613281 22.34375 -4.03125 C 23.414062 -4.457031 24.320312 -5.015625 25.0625 -5.703125 C 25.789062 -6.367188 26.367188 -7.082031 26.796875 -7.84375 C 27.222656 -8.601562 27.4375 -9.3125 27.4375 -9.96875 L 27.4375 -13.109375 L 21.109375 -13.109375 L 21.109375 -16.484375 L 35.671875 -16.484375 L 35.671875 -13.109375 L 32.015625 -13.109375 L 32.015625 0 L 29.3125 0 L 28.21875 -4.71875 C 27.726562 -3.75 27.066406 -2.898438 26.234375 -2.171875 C 25.410156 -1.441406 24.5 -0.878906 23.5 -0.484375 C 21.601562 0.242188 19.644531 0.609375 17.625 0.609375 Z M 17.625 0.609375 "/></g></g><g transform="translate(1018.104817, 581.550218)"><g/></g><g transform="translate(1028.83991, 581.550218)"><g><path d="M 3.421875 5.5 L 3.421875 -35.90625 L 7.453125 -35.90625 L 7.453125 5.5 Z M 3.421875 5.5 "/></g></g><g transform="translate(1039.731556, 581.550218)"><g/></g><g transform="translate(1050.466648, 581.550218)"><g><path d="M 0.734375 -3.203125 L 6.171875 -3.203125 L 6.171875 -30.453125 L 0.734375 -30.453125 L 0.734375 -33.65625 L 14.46875 -33.65625 C 15.550781 -33.65625 16.445312 -33.640625 17.15625 -33.609375 C 17.863281 -33.578125 18.734375 -33.503906 19.765625 -33.390625 C 20.867188 -33.253906 21.828125 -33.066406 22.640625 -32.828125 C 23.453125 -32.597656 24.304688 -32.265625 25.203125 -31.828125 C 26.109375 -31.359375 26.847656 -30.8125 27.421875 -30.1875 C 27.992188 -29.5625 28.46875 -28.769531 28.84375 -27.8125 C 29.21875 -26.875 29.40625 -25.785156 29.40625 -24.546875 C 29.40625 -23.367188 29.238281 -22.296875 28.90625 -21.328125 C 28.582031 -20.359375 28.140625 -19.53125 27.578125 -18.84375 C 27.054688 -18.238281 26.363281 -17.691406 25.5 -17.203125 C 24.644531 -16.722656 23.753906 -16.34375 22.828125 -16.0625 C 22.035156 -15.820312 21.054688 -15.625 19.890625 -15.46875 C 18.722656 -15.3125 17.613281 -15.21875 16.5625 -15.1875 C 15.613281 -15.132812 14.503906 -15.109375 13.234375 -15.109375 L 11.453125 -15.109375 L 11.453125 -3.203125 L 17.046875 -3.203125 L 17.046875 0 L 0.734375 0 Z M 14.5625 -18 C 20.851562 -18 24 -20.125 24 -24.375 C 24 -25.550781 23.773438 -26.617188 23.328125 -27.578125 C 22.992188 -28.242188 22.363281 -28.847656 21.4375 -29.390625 C 20.914062 -29.679688 19.988281 -29.945312 18.65625 -30.1875 C 17.894531 -30.320312 16.722656 -30.40625 15.140625 -30.4375 C 14.796875 -30.445312 14.15625 -30.453125 13.21875 -30.453125 L 11.453125 -30.453125 L 11.453125 -18 Z M 14.5625 -18 "/></g></g><g transform="translate(1080.278895, 581.550218)"><g><path d="M 0.734375 0 L 0.734375 -3.203125 L 6.171875 -3.203125 L 6.171875 -30.453125 L 0.734375 -30.453125 L 0.734375 -33.65625 L 16.5625 -33.65625 L 16.5625 -30.453125 L 11.453125 -30.453125 L 11.453125 -3.203125 L 24.078125 -3.203125 L 24.078125 -13.96875 L 28.265625 -13.96875 L 28.265625 0 Z M 0.734375 0 "/></g></g><g transform="translate(1109.129456, 581.550218)"><g><path d="M 0.171875 0 L 0.171875 -3.203125 L 4.203125 -3.203125 L 15.984375 -33.65625 L 21.28125 -33.65625 L 33.25 -3.203125 L 37.015625 -3.203125 L 37.015625 0 L 22.546875 0 L 22.546875 -3.203125 L 27.53125 -3.203125 L 24.421875 -11.265625 L 11.5 -11.265625 L 8.5625 -3.203125 L 14.203125 -3.203125 L 14.203125 0 Z M 12.546875 -14.109375 L 23.296875 -14.109375 L 17.78125 -29.265625 Z M 12.546875 -14.109375 "/></g></g></g><g fill="#1d5ab2" fill-opacity="1"><g transform="translate(1142.967365, 581.550218)"><g><path d="M 17.78125 0.609375 C 15.507812 0.609375 13.367188 0.140625 11.359375 -0.796875 C 9.359375 -1.742188 7.660156 -3.035156 6.265625 -4.671875 C 4.878906 -6.296875 3.800781 -8.191406 3.03125 -10.359375 C 2.257812 -12.535156 1.875 -14.804688 1.875 -17.171875 C 1.875 -19.617188 2.265625 -21.898438 3.046875 -24.015625 C 3.828125 -26.128906 4.9375 -27.957031 6.375 -29.5 C 7.820312 -31.03125 9.566406 -32.21875 11.609375 -33.0625 C 13.660156 -33.914062 15.878906 -34.34375 18.265625 -34.34375 C 20.335938 -34.34375 22.304688 -33.90625 24.171875 -33.03125 C 26.046875 -32.164062 27.585938 -30.941406 28.796875 -29.359375 C 30.023438 -27.765625 30.640625 -25.976562 30.640625 -24 C 30.640625 -23.3125 30.457031 -22.65625 30.09375 -22.03125 C 29.726562 -21.40625 29.207031 -20.894531 28.53125 -20.5 C 27.863281 -20.113281 27.101562 -19.921875 26.25 -19.921875 C 25.101562 -19.921875 24.179688 -20.253906 23.484375 -20.921875 C 22.796875 -21.597656 22.453125 -22.503906 22.453125 -23.640625 C 22.453125 -24.367188 22.648438 -25.003906 23.046875 -25.546875 C 23.453125 -26.085938 23.960938 -26.5 24.578125 -26.78125 C 25.191406 -27.070312 25.8125 -27.21875 26.4375 -27.21875 C 25.675781 -28.394531 24.566406 -29.351562 23.109375 -30.09375 C 21.660156 -30.84375 20.03125 -31.21875 18.21875 -31.21875 C 16.207031 -31.21875 14.40625 -30.632812 12.8125 -29.46875 C 11.226562 -28.3125 9.992188 -26.660156 9.109375 -24.515625 C 8.222656 -22.378906 7.78125 -19.898438 7.78125 -17.078125 C 7.78125 -15.441406 8.039062 -13.828125 8.5625 -12.234375 C 9.082031 -10.648438 9.8125 -9.203125 10.75 -7.890625 C 11.71875 -6.546875 12.9375 -5.484375 14.40625 -4.703125 C 15.875 -3.921875 17.46875 -3.53125 19.1875 -3.53125 C 20.46875 -3.53125 21.6875 -3.769531 22.84375 -4.25 C 24 -4.738281 24.988281 -5.394531 25.8125 -6.21875 C 26.59375 -7.007812 27.25 -7.863281 27.78125 -8.78125 C 28.320312 -9.707031 28.722656 -10.671875 28.984375 -11.671875 L 31.984375 -10.21875 C 31.171875 -6.75 29.550781 -4.078125 27.125 -2.203125 C 24.707031 -0.328125 21.59375 0.609375 17.78125 0.609375 Z M 17.78125 0.609375 "/></g></g><g transform="translate(1175.329196, 581.550218)"><g><path d="M 0.734375 0 L 0.734375 -3.203125 L 6.234375 -3.203125 L 6.234375 -30.453125 L 0.734375 -30.453125 L 0.734375 -33.65625 L 31.15625 -33.65625 L 31.15625 -20.703125 L 27.109375 -20.703125 L 27.109375 -30.453125 L 11.5 -30.453125 L 11.5 -18.359375 L 19.828125 -18.359375 L 19.828125 -23.859375 L 22.8125 -23.859375 L 22.8125 -9.96875 L 19.828125 -9.96875 L 19.828125 -15.8125 L 11.5 -15.8125 L 11.5 -3.203125 L 27.109375 -3.203125 L 27.109375 -12.765625 L 31.15625 -12.765625 L 31.15625 0 Z M 0.734375 0 "/></g></g><g transform="translate(1208.518524, 581.550218)"><g><path d="M 1.140625 -3.203125 L 6.03125 -3.203125 L 6.03125 -30.453125 L 0.734375 -30.453125 L 0.734375 -33.65625 L 14.296875 -33.65625 L 22.25 -12.453125 L 29.671875 -33.65625 L 42.265625 -33.65625 L 42.265625 -30.453125 L 37.046875 -30.453125 L 37.046875 -3.203125 L 42.59375 -3.203125 L 42.59375 0 L 27.109375 0 L 27.109375 -3.203125 L 32.015625 -3.203125 L 32.015625 -29.71875 L 23.296875 -5.765625 C 22.878906 -4.628906 22.335938 -4.0625 21.671875 -4.0625 C 21.328125 -4.0625 20.992188 -4.207031 20.671875 -4.5 C 20.347656 -4.789062 20.097656 -5.171875 19.921875 -5.640625 L 10.125 -30.40625 L 10.125 -3.203125 L 15.765625 -3.203125 L 15.765625 0 L 1.140625 0 Z M 1.140625 -3.203125 "/></g></g><g transform="translate(1251.839095, 581.550218)"><g><path d="M 0.734375 0 L 0.734375 -3.203125 L 6.234375 -3.203125 L 6.234375 -30.453125 L 0.734375 -30.453125 L 0.734375 -33.65625 L 31.15625 -33.65625 L 31.15625 -20.703125 L 27.109375 -20.703125 L 27.109375 -30.453125 L 11.5 -30.453125 L 11.5 -18.359375 L 19.828125 -18.359375 L 19.828125 -23.859375 L 22.8125 -23.859375 L 22.8125 -9.96875 L 19.828125 -9.96875 L 19.828125 -15.8125 L 11.5 -15.8125 L 11.5 -3.203125 L 27.109375 -3.203125 L 27.109375 -12.765625 L 31.15625 -12.765625 L 31.15625 0 Z M 0.734375 0 "/></g></g><g transform="translate(1285.028423, 581.550218)"><g><path d="M 0.734375 0 L 0.734375 -3.203125 L 6.125 -3.203125 L 6.125 -30.453125 L 0.734375 -30.453125 L 0.734375 -33.65625 L 12.8125 -33.65625 L 28.71875 -5.953125 L 28.71875 -30.453125 L 23.25 -30.453125 L 23.25 -33.65625 L 38.109375 -33.65625 L 38.109375 -30.453125 L 32.984375 -30.453125 L 32.984375 0 L 27.015625 0 L 10.390625 -28.890625 L 10.390625 -3.203125 L 15.515625 -3.203125 L 15.515625 0 Z M 0.734375 0 "/></g></g><g transform="translate(1323.495838, 581.550218)"><g><path d="M 8.296875 0 L 8.296875 -3.203125 L 13.5 -3.203125 L 13.5 -30.453125 L 4.9375 -30.453125 L 4.9375 -20.0625 L 0.78125 -20.0625 L 0.78125 -33.65625 L 31.328125 -33.65625 L 31.328125 -20.0625 L 27.140625 -20.0625 L 27.140625 -30.453125 L 18.78125 -30.453125 L 18.78125 -3.203125 L 24.125 -3.203125 L 24.125 0 Z M 8.296875 0 "/></g></g></g></svg>